HIERARCHY
ROOT Hips
{
	OFFSET 0.000000 0.000000 0.000000
	CHANNELS 6 Xposition Yposition Zposition Xrotation Yrotation Zrotation
	JOINT LeftUpLeg_virtual
	{
		OFFSET 0.000000 0.000000 0.000000
		CHANNELS 3 Xrotation Yrotation Zrotation
		JOINT LeftUpLeg
		{
			OFFSET 11.394100 -6.187798 -0.413800
			CHANNELS 3 Xrotation Yrotation Zrotation
			JOINT LeftLeg
			{
				OFFSET 0.430247 -32.302673 3.732800
				CHANNELS 3 Xrotation Yrotation Zrotation
				JOINT LeftFoot
				{
					OFFSET -0.430247 -48.264931 -6.423300
					CHANNELS 3 Xrotation Yrotation Zrotation
					JOINT LeftToeBase
					{
						OFFSET 4.230900 -16.068199 23.438400
						CHANNELS 3 Xrotation Yrotation Zrotation
						JOINT LeftToe_End
						{
							OFFSET 4.510700 0.695400 19.974600
							CHANNELS 3 Xrotation Yrotation Zrotation
							End Site
							{
								OFFSET 0 0 0
							}
						}
					}
				}
			}
		}
	}
	JOINT RightUpLeg_virtual
	{
		OFFSET 0.000000 0.000000 0.000000
		CHANNELS 3 Xrotation Yrotation Zrotation
		JOINT RightUpLeg
		{
			OFFSET -11.333700 -6.187798 -0.413800
			CHANNELS 3 Xrotation Yrotation Zrotation
			JOINT RightLeg
			{
				OFFSET -0.430392 -32.302628 3.733000
				CHANNELS 3 Xrotation Yrotation Zrotation
				JOINT RightFoot
				{
					OFFSET 0.430392 -48.264973 -6.423500
					CHANNELS 3 Xrotation Yrotation Zrotation
					JOINT RightToeBase
					{
						OFFSET -4.230900 -16.068199 23.438400
						CHANNELS 3 Xrotation Yrotation Zrotation
						JOINT RightToe_End
						{
							OFFSET -4.510700 0.695400 19.974600
							CHANNELS 3 Xrotation Yrotation Zrotation
							End Site
							{
								OFFSET 0 0 0
							}
						}
					}
				}
			}
		}
	}
	JOINT Spine_virtual
	{
		OFFSET 0.000000 0.000000 0.000000
		CHANNELS 3 Xrotation Yrotation Zrotation
		JOINT Spine
		{
			OFFSET -0.002400 12.777504 0.315300
			CHANNELS 3 Xrotation Yrotation Zrotation
			JOINT Spine1
			{
				OFFSET -0.002067 5.816869 0.032633
				CHANNELS 3 Xrotation Yrotation Zrotation
				JOINT Spine1_split
				{
					OFFSET -0.002067 5.816869 0.032633
					CHANNELS 3 Xrotation Yrotation Zrotation
					JOINT Spine2
					{
						OFFSET -0.002067 5.816869 0.032633
						CHANNELS 3 Xrotation Yrotation Zrotation
						JOINT Neck_virtual
						{
							OFFSET 0.000000 0.000000 0.000000
							CHANNELS 3 Xrotation Yrotation Zrotation
							JOINT Neck
							{
								OFFSET -0.003700 21.199493 -0.826900
								CHANNELS 3 Xrotation Yrotation Zrotation
								JOINT Head
								{
									OFFSET 0.000000 20.442200 4.834800
									CHANNELS 3 Xrotation Yrotation Zrotation
									JOINT HeadTop_End
									{
										OFFSET 0.000000 34.668396 4.968400
										CHANNELS 3 Xrotation Yrotation Zrotation
										End Site
										{
											OFFSET 0 0 0
										}
									}
								}
							}
						}
						JOINT LeftShoulder_virtual
						{
							OFFSET 0.000000 0.000000 0.000000
							CHANNELS 3 Xrotation Yrotation Zrotation
							JOINT LeftShoulder
							{
								OFFSET 3.288150 8.794197 -1.372250
								CHANNELS 3 Xrotation Yrotation Zrotation
								JOINT LeftShoulder_split
								{
									OFFSET 3.288150 8.794197 -1.372250
									CHANNELS 3 Xrotation Yrotation Zrotation
									JOINT LeftArm
									{
										OFFSET 11.953299 -2.279007 -0.146200
										CHANNELS 3 Xrotation Yrotation Zrotation
										JOINT LeftForeArm
										{
											OFFSET 18.448900 0.000000 0.000000
											CHANNELS 3 Xrotation Yrotation Zrotation
											JOINT LeftHand
											{
												OFFSET 29.527798 0.000000 0.000000
												CHANNELS 3 Xrotation Yrotation Zrotation
												End Site
												{
													OFFSET 0 0 0
												}
											}
										}
									}
								}
							}
						}
						JOINT RightShoulder_virtual
						{
							OFFSET 0.000000 0.000000 0.000000
							CHANNELS 3 Xrotation Yrotation Zrotation
							JOINT RightShoulder
							{
								OFFSET -3.249400 8.794197 -1.372250
								CHANNELS 3 Xrotation Yrotation Zrotation
								JOINT RightShoulder_split
								{
									OFFSET -3.249400 8.794197 -1.372250
									CHANNELS 3 Xrotation Yrotation Zrotation
									JOINT RightArm
									{
										OFFSET -11.953299 -2.279007 -0.146200
										CHANNELS 3 Xrotation Yrotation Zrotation
										JOINT RightForeArm
										{
											OFFSET -18.448900 0.000000 0.000000
											CHANNELS 3 Xrotation Yrotation Zrotation
											JOINT RightHand
											{
												OFFSET -29.527802 0.000000 0.000000
												CHANNELS 3 Xrotation Yrotation Zrotation
												End Site
												{
													OFFSET 0 0 0
												}
											}
										}
									}
								}
							}
						}
					}
				}
			}
		}
	}
}
MOTION
Frames: 4
Frame Time: 0.03333333
5.614319 99.019234 5.433701 0.000000 0.000000 0.000000 -0.721817 13.674735 7.054823 -18.641552 -3.197292 -4.641404 19.570854 2.266478 -4.163796 -0.226002 11.272291 0.303018 -1.946161 0.122030 -0.789697 0.000000 0.000000 0.000000 -0.721817 13.674735 7.054823 -1.589457 -6.080531 -16.724319 25.965845 -22.112234 1.701272 -3.842509 -32.103822 21.946520 -6.091369 -0.016873 -0.206678 0.000000 0.000000 0.000000 -0.721817 13.674735 7.054823 1.370620 6.495558 10.649424 9.627459 6.013830 1.213986 0.000000 0.000000 0.000000 0.000000 0.000000 0.000000 -0.200652 5.907539 1.227144 -11.589374 -16.052727 -0.377551 3.206333 -15.129207 -3.210451 0.000000 0.000000 0.000000 -0.200652 5.907539 1.227144 1.099648 5.973043 22.519115 0.000000 0.000000 0.000000 -58.734163 3.701361 -30.815720 -31.082599 -20.347231 12.092533 0.000000 0.000000 0.000000 -0.200652 5.907539 1.227144 5.662563 9.164063 5.261975 0.000000 0.000000 0.000000 20.859671 -63.359266 58.540732 0.367545 19.672593 37.179476 0.000000 0.000000 0.000000 
5.572151 98.688072 6.033154 0.000000 0.000000 0.000000 0.424715 23.843308 5.476151 -22.982977 -8.966897 -5.691789 21.341097 -0.194831 -4.678294 0.286764 9.640776 0.697366 -1.888312 0.117178 -0.774289 0.000000 0.000000 0.000000 0.424715 23.843308 5.476151 0.640540 -15.010852 -14.311788 23.207301 -21.772215 0.938455 -5.162562 -29.548618 22.412525 -7.886824 -0.013862 -0.038125 0.000000 0.000000 0.000000 0.424715 23.843308 5.476151 -1.151236 7.197168 10.824071 7.340190 7.401401 -0.347059 0.000000 0.000000 0.000000 0.000000 0.000000 0.000000 0.687531 7.224077 -0.473161 -14.981687 -22.379386 3.474324 6.383156 -19.162914 -1.752119 0.000000 0.000000 0.000000 0.687531 7.224077 -0.473161 -0.958329 11.589823 16.054740 0.000000 0.000000 0.000000 -66.492090 6.731938 -32.420910 -50.068558 -20.341212 15.357170 0.000000 0.000000 0.000000 0.687531 7.224077 -0.473161 5.228954 9.723376 6.084445 0.000000 0.000000 0.000000 10.668964 -68.209411 51.667581 -0.500535 18.866880 38.212361 0.000000 0.000000 0.000000 
5.513665 98.347076 6.412987 0.000000 0.000000 0.000000 1.762821 30.952307 4.157400 -26.776319 -14.139751 -7.384902 22.605701 -1.424558 -5.024152 0.713253 9.358435 0.626446 -1.830465 0.112110 -0.758882 0.000000 0.000000 0.000000 1.762821 30.952307 4.157400 2.034730 -23.249614 -12.712097 20.877738 -19.183650 0.490040 -7.040763 -26.868829 21.800750 -9.230060 -0.012072 0.080778 0.000000 0.000000 0.000000 1.762821 30.952307 4.157400 -3.102766 7.870428 10.062580 5.554685 8.658323 -1.589353 0.000000 0.000000 0.000000 0.000000 0.000000 0.000000 1.738244 8.299231 -1.912929 -18.260203 -26.743042 6.305351 8.037604 -21.371747 -1.064210 0.000000 0.000000 0.000000 1.738244 8.299231 -1.912929 -1.577761 14.389634 6.973796 0.000000 0.000000 0.000000 -69.478016 6.137845 -33.977971 -57.150539 -21.535474 12.111627 0.000000 0.000000 0.000000 1.738244 8.299231 -1.912929 4.894000 10.841099 6.313584 0.000000 0.000000 0.000000 4.878262 -64.300883 47.139104 1.435487 17.723760 37.243533 0.000000 0.000000 0.000000 
5.438821 98.024307 6.700672 0.000000 0.000000 0.000000 3.196643 36.324896 2.964449 -30.062627 -17.999106 -9.090540 23.680399 -0.334198 -5.104487 1.094432 7.194358 0.262116 -1.772675 0.107272 -0.743505 0.000000 0.000000 0.000000 3.196643 36.324896 2.964449 3.104416 -29.436312 -11.218293 19.134242 -17.259289 0.182346 -8.527635 -24.926004 21.278734 -10.037543 -0.010575 0.152407 0.000000 0.000000 0.000000 3.196643 36.324896 2.964449 -4.295262 8.639912 7.735059 4.148995 9.738362 -2.313486 0.000000 0.000000 0.000000 0.000000 0.000000 0.000000 2.622313 9.143783 -2.876045 -20.421378 -29.514723 8.606549 9.851723 -22.310424 -0.601215 0.000000 0.000000 0.000000 2.622313 9.143783 -2.876045 -1.551608 16.133067 -1.361288 0.000000 0.000000 0.000000 -73.331308 7.070536 -36.866441 -56.368038 -25.384603 -0.231587 0.000000 0.000000 0.000000 2.622313 9.143783 -2.876045 4.563272 12.285499 5.226380 0.000000 0.000000 0.000000 6.941769 -52.767395 49.307627 2.904020 16.059750 35.334686 0.000000 0.000000 0.000000 
